Coordinates
version=1
nRows=21
nColumns=12
inDegrees=yes

Units are S.I. units (second, meters, Newtons, ...)
Angles are in degrees

endheader
time	SC_y	SC_z	SC_x	AC_y	AC_z	AC_x	GH_y	GH_z	GH_yy	EL_x	PS_y
       0.0              -43.68          11.56          13.59          61.67          8.197         -13.63         -93.09          58.98         -157.1          102.8          140.4
  0.008952              -43.68          11.56           13.6          61.67          8.195         -13.63         -93.09          58.98         -157.0          102.8          140.4
    0.0179              -43.68          11.55           13.6          61.67          8.194         -13.64         -93.08          58.99         -157.0          102.8          140.4
   0.02686              -43.68          11.55          13.61          61.66          8.192         -13.64         -93.07          58.99         -157.0          102.8          140.4
   0.03581              -43.68          11.55          13.62          61.66           8.19         -13.64         -93.06          58.99         -156.9          102.8          140.4
   0.04476              -43.68          11.55          13.62          61.65          8.188         -13.64         -93.05          58.99         -156.9          102.7          140.4
   0.05371              -43.68          11.54          13.63          61.65          8.185         -13.64         -93.04          58.99         -156.8          102.7          140.4
   0.06267              -43.68          11.54          13.64          61.64          8.183         -13.64         -93.03           59.0         -156.8          102.7          140.4
   0.07162              -43.67          11.54          13.65          61.64           8.18         -13.64         -93.02           59.0         -156.7          102.7          140.4
   0.08057              -43.67          11.54          13.66          61.63          8.178         -13.64         -93.01           59.0         -156.7          102.7          140.4
   0.08952              -43.67          11.53          13.67          61.62          8.174         -13.64          -93.0           59.0         -156.6          102.7          140.4
   0.09848              -43.67          11.53          13.68          61.62          8.171         -13.64         -92.99          59.01         -156.6          102.6          140.4
    0.1074              -43.67          11.52          13.69          61.61          8.168         -13.64         -92.97          59.01         -156.5          102.6          140.4
    0.1164              -43.67          11.52          13.71           61.6          8.164         -13.64         -92.95          59.01         -156.4          102.6          140.4
    0.1253              -43.67          11.52          13.72          61.59           8.16         -13.65         -92.94          59.02         -156.3          102.6          140.4
    0.1343              -43.66          11.51          13.73          61.58          8.155         -13.65         -92.92          59.02         -156.2          102.5          140.4
    0.1432              -43.66          11.51          13.75          61.57          8.151         -13.65          -92.9          59.03         -156.1          102.5          140.4
    0.1522              -43.66           11.5          13.77          61.56          8.145         -13.65         -92.88          59.03         -156.0          102.5          140.4
    0.1611              -43.66          11.49          13.79          61.54           8.14         -13.65         -92.85          59.04         -155.9          102.4          140.4
    0.1701              -43.65          11.49          13.81          61.53          8.133         -13.65         -92.83          59.04         -155.8          102.4          140.4
     0.179              -43.65          11.48          13.83          61.51          8.127         -13.66          -92.8          59.05         -155.7          102.3          140.4
